<?xml version="1.0" encoding="UTF-8"?>
<svg id="logo" xmlns="http://www.w3.org/2000/svg" version="1.1" viewBox="0 0 334.5 334.5">
  <defs>
    <style>
      .cls-1 {
        fill: #fabf25;
      }

      .cls-1, .cls-2, .cls-3, .cls-4, .cls-5, .cls-6, .cls-7, .cls-8, .cls-9 {
        stroke-width: 0px;
      }

      .cls-2 {
        fill: #35a744;
      }

      .cls-3 {
        fill: #1097b0;
      }

      .cls-4 {
        fill: #ef2f16;
      }

      .cls-5 {
        fill: #7e2b78;
      }

      .cls-6 {
        fill: #12315b;
      }

      .cls-7 {
        fill: #f27e28;
      }

      .cls-8 {
        fill: #c3d72f;
      }

      .cls-9 {
        fill: #e6007e;
      }
    </style>
  </defs>
  <path class="cls-9" d="M127.8,289.1c-52.9-17.1-88.5-65.7-88.5-121s12.3-63.2,34.5-86.9l3.8,3.6c-21.3,22.7-33.1,52.2-33.1,83.3,0,53,34.1,99.7,84.9,116.1l-1.6,5h0Z"/>
  <path class="cls-3" d="M130.2,199.1c-8.6-9.9-12.7-23.1-11.3-36.2.7-7,3-13.5,6.6-19.5l4.9,3c-3.2,5.2-5.1,11-5.8,17.1-1.2,11.5,2.4,23.1,10,31.8l-4.3,3.8h0Z"/>
  <path class="cls-2" d="M222.8,190.6l-5.3-2.1c6.2-15.4,5.1-32.6-2.9-47.2-6.8-12.4-18-21.6-31.5-25.9l1.8-5.5c14.9,4.8,27.2,14.9,34.7,28.6,8.9,16.1,10,35,3.2,52.1h0Z"/>
  <path class="cls-8" d="M166.2,242.4c-3.5,0-7-.2-10.4-.7l.8-5.7c7.2,1,14.6.9,21.7-.4l1,5.7c-4.3.8-8.7,1.2-13.1,1.2h0Z"/>
  <path class="cls-1" d="M167.5,255.8v-5.7c6.7-.1,13.5-1.1,20.1-2.8l1.5,5.5c-7,1.9-14.3,2.9-21.6,3h0Z"/>
  <path class="cls-1" d="M114.7,239.2c-8.3-5.3-15.3-14.1-15.9-14.9-13.4-16-20.7-36.3-20.5-57.2.2-20.6,7.6-40.6,21-56.2l4.4,3.7c-26.1,30.6-26.3,75.2-.4,106,0,0,0,0,0,0,0,0,6.8,8.7,14.5,13.6l-3.1,4.9h0Z"/>
  <path class="cls-1" d="M222.6,235.3l-3.7-4.4c16.8-14.1,27.1-33.9,29-55.8,1.9-21.9-4.8-43.1-18.9-60-21-25.1-54.9-35.3-86.3-26l-1.6-5.5c33.6-9.9,69.8,1,92.3,27.8,15.1,18,22.3,40.8,20.2,64.2-2.1,23.4-13.1,44.6-31.1,59.7h0Z"/>
  <path class="cls-7" d="M166.1,269.3c-4.8,0-9.5-.3-14.2-1l.8-5.7c15,2.1,30.5.6,44.7-4.3l1.9,5.4c-10.6,3.7-21.9,5.5-33.2,5.5h0Z"/>
  <path class="cls-7" d="M248,227.7l-4.6-3.4c26-35.6,24.4-84-3.9-117.8-16.4-19.6-39.4-31.6-64.9-33.8-25.4-2.2-50.2,5.6-69.8,22l-3.7-4.4c20.7-17.4,47-25.7,74-23.3,27,2.4,51.4,15.1,68.8,35.8,30.1,35.8,31.8,87.2,4.2,124.9h0Z"/>
  <path class="cls-7" d="M123.2,259.7c-13.4-6.3-25.1-15.3-34.7-26.7-24-28.6-30.3-68-16.4-102.8l5.3,2.1c-13.1,32.8-7.2,69.9,15.5,97,9,10.8,20.1,19.3,32.7,25.2l-2.4,5.2h0Z"/>
  <path class="cls-4" d="M82.1,98.4l-4.4-3.7c4.5-5.4,9.5-10.4,14.9-15,16.1-13.4,35.4-22.1,55.9-25.3l.9,5.7c-19.5,3-37.9,11.3-53.1,24-5.2,4.3-9.9,9.1-14.2,14.2h0Z"/>
  <path class="cls-4" d="M78,241.5c-18.7-22.5-28.1-50.9-26.4-80.1l5.7.3c-1.6,27.7,7.3,54.8,25.1,76.1l-4.4,3.7h0Z"/>
  <path class="cls-4" d="M261,114.2c-3.2-5.7-7-11.1-11.2-16.1-12.5-15-28.8-26.4-47.1-32.9l1.9-5.4c19.3,6.9,36.4,18.8,49.6,34.6,4.4,5.3,8.4,11,11.8,17l-5,2.8h0Z"/>
  <path class="cls-9" d="M283.9,131c-4.8-15.1-12.5-28.9-22.8-41.1-19.9-23.8-47.8-39-78.6-42.8-30.6-3.8-61.2,3.9-86.2,21.7-2.6,1.9-5.3,3.9-7.8,6l-3.7-4.4c2.6-2.2,5.3-4.3,8.1-6.3,26.2-18.6,58.2-26.7,90.3-22.7,32.2,4,61.4,20,82.3,44.8,10.7,12.8,18.8,27.3,23.8,43.1l-5.5,1.8h0Z"/>
  <path class="cls-5" d="M292.2,232.5l-5.1-2.6c19.5-38.2,19.9-83.9.8-122.3-4.8-9.6-10.7-18.7-17.7-27-26.1-31.2-64.5-48.9-105.2-48.6v-5.7c.3,0,.7,0,1,0,42.1,0,81.6,18.4,108.6,50.6,7.3,8.7,13.5,18.1,18.4,28.2,19.8,40,19.5,87.6-.9,127.4h0Z"/>
  <path class="cls-6" d="M221,251.4l-25.2-45.6c11.3-9,18.6-22.8,18.6-38.4,0-27-22-49-49-49s-6.1.3-9,.8v7.9c2.9-.6,5.9-1,9-1,22.8,0,41.3,18.5,41.3,41.3s-18.5,41.3-41.3,41.3-6.1-.4-9-1v7.9c2.9.5,5.9.8,9,.8,4.9,0,9.5-.7,14-2l25.4,46,16.3-9h0Z"/>
  <rect class="cls-6" x="138.5" y="119.4" width="7.8" height="144.9"/>
  <path class="cls-2" d="M127.1,214.8c-3.2-2.6-6.1-5.6-8.6-8.8-10.2-12.7-14.8-28.7-13-44.8,1.8-16.2,9.8-30.7,22.5-40.9l3.6,4.5c-11.5,9.2-18.8,22.4-20.4,37-1.6,14.7,2.5,29.1,11.7,40.6,2.3,2.9,5,5.6,7.8,8l-3.7,4.4h0Z"/>
  <path class="cls-8" d="M93.9,185.8c-6.3-25.4,1-51.6,19.3-70.2,28.8-29.2,76.1-29.5,105.3-.6l-4,4.1c-26.9-26.6-70.5-26.3-97.1.6-16.9,17.1-23.6,41.4-17.8,64.8l-5.6,1.4h0Z"/>
  <path class="cls-8" d="M219.1,220.3l-4.1-4c4.3-4.4,8-9.3,11-14.5,4.4-7.8,7.2-16.2,8.3-25.1l5.7.7c-1.2,9.7-4.2,18.8-9,27.3-3.2,5.7-7.2,11-11.9,15.8h0Z"/>
  <path class="cls-4" d="M175,282.5l-.4-5.7c32.5-2.5,61.9-19.3,80.7-45.9,11.2-16,18-34.6,19.5-54l5.7.5c-1.6,20.4-8.7,40-20.5,56.8-19.7,28.1-50.7,45.7-84.9,48.4h0Z"/>
  <path class="cls-5" d="M82.6,279.7c-35.5-26.9-55.9-67.8-55.9-112.3s3.2-34.6,9.5-50.9l5.4,2.1c-6,15.5-9.1,31.9-9.1,48.8,0,42.7,19.5,82,53.6,107.7l-3.5,4.6h0Z"/>
</svg>